<mxfile host="www.draw.io" modified="2019-11-11T23:06:25.156Z" agent="Mozilla/5.0 (Macintosh; Intel Mac OS X 10_15_1) AppleWebKit/605.1.15 (KHTML, like Gecko) Version/13.0.3 Safari/605.1.15" etag="S97Ut79P-7w7mAkCCWSk" version="12.2.3" type="github" pages="1">
  <diagram id="p7X6kBipf6NRtPsfhJUI" name="Page-1">
    <mxGraphModel dx="1056" dy="620" grid="1" gridSize="10" guides="1" tooltips="1" connect="1" arrows="1" fold="1" page="1" pageScale="1" pageWidth="850" pageHeight="1100" math="0" shadow="0">
      <root>
        <mxCell id="0"/>
        <mxCell id="1" parent="0"/>
        <mxCell id="eX5tcvASmp5op76P1cSw-11" value="" style="endArrow=classic;startArrow=oval;html=1;entryX=0;entryY=0.5;entryDx=0;entryDy=0;exitX=1;exitY=0.5;exitDx=0;exitDy=0;startFill=1;" parent="1" source="eX5tcvASmp5op76P1cSw-3" target="eX5tcvASmp5op76P1cSw-5" edge="1">
          <mxGeometry width="50" height="50" relative="1" as="geometry">
            <mxPoint x="218" y="610" as="sourcePoint"/>
            <mxPoint x="476" y="550" as="targetPoint"/>
            <Array as="points">
              <mxPoint x="218" y="400"/>
              <mxPoint x="218" y="180"/>
            </Array>
          </mxGeometry>
        </mxCell>
        <mxCell id="eX5tcvASmp5op76P1cSw-14" value="" style="endArrow=classic;startArrow=oval;html=1;exitX=0.5;exitY=1;exitDx=0;exitDy=0;entryX=0.5;entryY=0;entryDx=0;entryDy=0;endFill=1;startFill=1;" parent="1" source="eX5tcvASmp5op76P1cSw-1" target="eX5tcvASmp5op76P1cSw-3" edge="1">
          <mxGeometry width="50" height="50" relative="1" as="geometry">
            <mxPoint x="208" y="190" as="sourcePoint"/>
            <mxPoint x="268" y="150" as="targetPoint"/>
          </mxGeometry>
        </mxCell>
        <mxCell id="eX5tcvASmp5op76P1cSw-17" value="" style="group" parent="1" vertex="1" connectable="0">
          <mxGeometry x="278" y="370" width="120" height="60" as="geometry"/>
        </mxCell>
        <mxCell id="eX5tcvASmp5op76P1cSw-7" value="" style="rounded=1;whiteSpace=wrap;html=1;" parent="eX5tcvASmp5op76P1cSw-17" vertex="1">
          <mxGeometry width="120" height="60" as="geometry"/>
        </mxCell>
        <mxCell id="eX5tcvASmp5op76P1cSw-8" value="Class" style="text;html=1;strokeColor=none;fillColor=none;align=center;verticalAlign=middle;whiteSpace=wrap;rounded=0;" parent="eX5tcvASmp5op76P1cSw-17" vertex="1">
          <mxGeometry x="40" y="20" width="40" height="20" as="geometry"/>
        </mxCell>
        <mxCell id="eX5tcvASmp5op76P1cSw-32" value="" style="endArrow=classic;startArrow=oval;html=1;entryX=0.75;entryY=1;entryDx=0;entryDy=0;exitX=0.25;exitY=1;exitDx=0;exitDy=0;startFill=1;" parent="eX5tcvASmp5op76P1cSw-17" source="eX5tcvASmp5op76P1cSw-7" target="eX5tcvASmp5op76P1cSw-7" edge="1">
          <mxGeometry width="50" height="50" relative="1" as="geometry">
            <mxPoint x="-240" y="130" as="sourcePoint"/>
            <mxPoint x="-190" y="80" as="targetPoint"/>
            <Array as="points">
              <mxPoint x="30" y="100"/>
              <mxPoint x="90" y="100"/>
            </Array>
          </mxGeometry>
        </mxCell>
        <mxCell id="eX5tcvASmp5op76P1cSw-19" value="" style="group" parent="1" vertex="1" connectable="0">
          <mxGeometry x="38" y="150" width="120" height="60" as="geometry"/>
        </mxCell>
        <mxCell id="eX5tcvASmp5op76P1cSw-1" value="" style="rounded=1;whiteSpace=wrap;html=1;" parent="eX5tcvASmp5op76P1cSw-19" vertex="1">
          <mxGeometry width="120" height="60" as="geometry"/>
        </mxCell>
        <mxCell id="eX5tcvASmp5op76P1cSw-2" value="System" style="text;html=1;strokeColor=none;fillColor=none;align=center;verticalAlign=middle;whiteSpace=wrap;rounded=0;" parent="eX5tcvASmp5op76P1cSw-19" vertex="1">
          <mxGeometry x="20" y="15" width="80" height="30" as="geometry"/>
        </mxCell>
        <mxCell id="eX5tcvASmp5op76P1cSw-20" value="" style="group" parent="1" vertex="1" connectable="0">
          <mxGeometry x="378" y="150" width="120" height="60" as="geometry"/>
        </mxCell>
        <mxCell id="eX5tcvASmp5op76P1cSw-5" value="" style="rounded=1;whiteSpace=wrap;html=1;" parent="eX5tcvASmp5op76P1cSw-20" vertex="1">
          <mxGeometry width="120" height="60" as="geometry"/>
        </mxCell>
        <mxCell id="eX5tcvASmp5op76P1cSw-6" value="File" style="text;html=1;strokeColor=none;fillColor=none;align=center;verticalAlign=middle;whiteSpace=wrap;rounded=0;" parent="eX5tcvASmp5op76P1cSw-20" vertex="1">
          <mxGeometry x="40" y="20" width="40" height="20" as="geometry"/>
        </mxCell>
        <mxCell id="eX5tcvASmp5op76P1cSw-21" value="" style="group" parent="1" vertex="1" connectable="0">
          <mxGeometry x="528" y="370" width="120" height="60" as="geometry"/>
        </mxCell>
        <mxCell id="eX5tcvASmp5op76P1cSw-9" value="" style="rounded=1;whiteSpace=wrap;html=1;" parent="eX5tcvASmp5op76P1cSw-21" vertex="1">
          <mxGeometry width="120" height="60" as="geometry"/>
        </mxCell>
        <mxCell id="eX5tcvASmp5op76P1cSw-10" value="Function" style="text;html=1;strokeColor=none;fillColor=none;align=center;verticalAlign=middle;whiteSpace=wrap;rounded=0;" parent="eX5tcvASmp5op76P1cSw-21" vertex="1">
          <mxGeometry x="40" y="20" width="40" height="20" as="geometry"/>
        </mxCell>
        <mxCell id="eX5tcvASmp5op76P1cSw-33" value="" style="endArrow=classic;startArrow=oval;html=1;entryX=0.75;entryY=1;entryDx=0;entryDy=0;exitX=0.25;exitY=1;exitDx=0;exitDy=0;startFill=1;" parent="eX5tcvASmp5op76P1cSw-21" source="eX5tcvASmp5op76P1cSw-9" target="eX5tcvASmp5op76P1cSw-9" edge="1">
          <mxGeometry width="50" height="50" relative="1" as="geometry">
            <mxPoint x="-490" y="180" as="sourcePoint"/>
            <mxPoint x="-440" y="130" as="targetPoint"/>
            <Array as="points">
              <mxPoint x="30" y="100"/>
              <mxPoint x="90" y="100"/>
            </Array>
          </mxGeometry>
        </mxCell>
        <mxCell id="eX5tcvASmp5op76P1cSw-22" value="" style="group" parent="1" vertex="1" connectable="0">
          <mxGeometry x="38" y="370" width="115" height="60" as="geometry"/>
        </mxCell>
        <mxCell id="eX5tcvASmp5op76P1cSw-3" value="" style="rounded=1;whiteSpace=wrap;html=1;" parent="eX5tcvASmp5op76P1cSw-22" vertex="1">
          <mxGeometry width="115" height="60" as="geometry"/>
        </mxCell>
        <mxCell id="eX5tcvASmp5op76P1cSw-4" value="Module" style="text;html=1;strokeColor=none;fillColor=none;align=center;verticalAlign=middle;whiteSpace=wrap;rounded=0;" parent="eX5tcvASmp5op76P1cSw-22" vertex="1">
          <mxGeometry x="35" y="20" width="40" height="20" as="geometry"/>
        </mxCell>
        <mxCell id="eX5tcvASmp5op76P1cSw-24" value="" style="endArrow=oval;startArrow=classic;html=1;entryX=0.408;entryY=0.983;entryDx=0;entryDy=0;entryPerimeter=0;exitX=0.5;exitY=0;exitDx=0;exitDy=0;startFill=1;endFill=1;" parent="1" source="eX5tcvASmp5op76P1cSw-7" target="eX5tcvASmp5op76P1cSw-5" edge="1">
          <mxGeometry width="50" height="50" relative="1" as="geometry">
            <mxPoint x="38" y="500" as="sourcePoint"/>
            <mxPoint x="88" y="450" as="targetPoint"/>
            <Array as="points">
              <mxPoint x="338" y="310"/>
              <mxPoint x="427" y="310"/>
            </Array>
          </mxGeometry>
        </mxCell>
        <mxCell id="eX5tcvASmp5op76P1cSw-26" value="" style="endArrow=classic;startArrow=oval;html=1;entryX=0;entryY=0.25;entryDx=0;entryDy=0;exitX=1;exitY=0.25;exitDx=0;exitDy=0;startFill=1;" parent="1" source="eX5tcvASmp5op76P1cSw-7" target="eX5tcvASmp5op76P1cSw-9" edge="1">
          <mxGeometry width="50" height="50" relative="1" as="geometry">
            <mxPoint x="38" y="500" as="sourcePoint"/>
            <mxPoint x="88" y="450" as="targetPoint"/>
            <Array as="points"/>
          </mxGeometry>
        </mxCell>
        <mxCell id="eX5tcvASmp5op76P1cSw-27" value="" style="rounded=1;whiteSpace=wrap;html=1;" parent="1" vertex="1">
          <mxGeometry x="638" y="150" width="120" height="60" as="geometry"/>
        </mxCell>
        <mxCell id="eX5tcvASmp5op76P1cSw-28" value="Import" style="text;html=1;strokeColor=none;fillColor=none;align=center;verticalAlign=middle;whiteSpace=wrap;rounded=0;" parent="1" vertex="1">
          <mxGeometry x="678" y="170" width="40" height="20" as="geometry"/>
        </mxCell>
        <mxCell id="eX5tcvASmp5op76P1cSw-29" value="" style="endArrow=classic;startArrow=oval;html=1;entryX=0;entryY=0.5;entryDx=0;entryDy=0;exitX=1;exitY=0.5;exitDx=0;exitDy=0;startFill=1;" parent="1" source="eX5tcvASmp5op76P1cSw-5" target="eX5tcvASmp5op76P1cSw-27" edge="1">
          <mxGeometry width="50" height="50" relative="1" as="geometry">
            <mxPoint x="288" y="630" as="sourcePoint"/>
            <mxPoint x="338" y="580" as="targetPoint"/>
          </mxGeometry>
        </mxCell>
        <mxCell id="eX5tcvASmp5op76P1cSw-30" value="" style="endArrow=classic;startArrow=oval;html=1;entryX=0.875;entryY=-0.017;entryDx=0;entryDy=0;entryPerimeter=0;startFill=1;" parent="1" edge="1">
          <mxGeometry width="50" height="50" relative="1" as="geometry">
            <mxPoint x="407" y="149" as="sourcePoint"/>
            <mxPoint x="472" y="148.98000000000002" as="targetPoint"/>
            <Array as="points">
              <mxPoint x="407" y="90"/>
              <mxPoint x="472" y="90"/>
            </Array>
          </mxGeometry>
        </mxCell>
        <mxCell id="eX5tcvASmp5op76P1cSw-34" value="" style="endArrow=oval;startArrow=classic;html=1;entryX=0.9;entryY=1.05;entryDx=0;entryDy=0;entryPerimeter=0;exitX=1;exitY=0.5;exitDx=0;exitDy=0;startFill=1;endFill=1;" parent="1" source="eX5tcvASmp5op76P1cSw-27" target="eX5tcvASmp5op76P1cSw-7" edge="1">
          <mxGeometry width="50" height="50" relative="1" as="geometry">
            <mxPoint x="38" y="550" as="sourcePoint"/>
            <mxPoint x="88" y="500" as="targetPoint"/>
            <Array as="points">
              <mxPoint x="780" y="180"/>
              <mxPoint x="780" y="500"/>
              <mxPoint x="386" y="500"/>
            </Array>
          </mxGeometry>
        </mxCell>
        <mxCell id="eX5tcvASmp5op76P1cSw-35" value="" style="endArrow=classic;startArrow=oval;html=1;entryX=0.567;entryY=0.983;entryDx=0;entryDy=0;entryPerimeter=0;exitX=1;exitY=0.5;exitDx=0;exitDy=0;endFill=1;startFill=1;" parent="1" source="eX5tcvASmp5op76P1cSw-9" target="eX5tcvASmp5op76P1cSw-27" edge="1">
          <mxGeometry width="50" height="50" relative="1" as="geometry">
            <mxPoint x="38" y="620" as="sourcePoint"/>
            <mxPoint x="88" y="570" as="targetPoint"/>
            <Array as="points">
              <mxPoint x="708" y="400"/>
            </Array>
          </mxGeometry>
        </mxCell>
        <mxCell id="eX5tcvASmp5op76P1cSw-36" value="SYSTEM_MODULES" style="text;html=1;strokeColor=none;fillColor=none;align=center;verticalAlign=middle;whiteSpace=wrap;rounded=0;horizontal=0;fontSize=8;direction=west;" parent="1" vertex="1">
          <mxGeometry x="30" y="280" width="110" height="20" as="geometry"/>
        </mxCell>
        <mxCell id="eX5tcvASmp5op76P1cSw-43" value="" style="endArrow=oval;startArrow=classic;html=1;fontSize=8;entryX=0;entryY=0.75;entryDx=0;entryDy=0;exitX=1;exitY=0.75;exitDx=0;exitDy=0;endFill=1;" parent="1" source="eX5tcvASmp5op76P1cSw-7" target="eX5tcvASmp5op76P1cSw-9" edge="1">
          <mxGeometry width="50" height="50" relative="1" as="geometry">
            <mxPoint x="30" y="620" as="sourcePoint"/>
            <mxPoint x="80" y="570" as="targetPoint"/>
          </mxGeometry>
        </mxCell>
        <mxCell id="eX5tcvASmp5op76P1cSw-25" value="" style="endArrow=classic;startArrow=oval;html=1;exitX=0.608;exitY=1.033;exitDx=0;exitDy=0;exitPerimeter=0;entryX=0.558;entryY=-0.05;entryDx=0;entryDy=0;entryPerimeter=0;endFill=1;startFill=1;" parent="1" source="eX5tcvASmp5op76P1cSw-5" target="eX5tcvASmp5op76P1cSw-9" edge="1">
          <mxGeometry width="50" height="50" relative="1" as="geometry">
            <mxPoint x="428" y="210" as="sourcePoint"/>
            <mxPoint x="38" y="500" as="targetPoint"/>
            <Array as="points">
              <mxPoint x="451" y="310"/>
              <mxPoint x="595" y="310"/>
            </Array>
          </mxGeometry>
        </mxCell>
      </root>
    </mxGraphModel>
  </diagram>
</mxfile>
